<?xml version="1.0" standalone="no"?><!DOCTYPE svg PUBLIC "-//W3C//DTD SVG 1.1//EN" "http://www.w3.org/Graphics/SVG/1.1/DTD/svg11.dtd"><svg width="500" height="500" viewBox="0 0 300 300" preserveAspectRatio="none" xmlns="http://www.w3.org/2000/svg" xmlns:xlink="http://www.w3.org/1999/xlink"><path d="M30,260 160,240 180,110z" fill="none" stroke="black" stroke-width="1" /><path d="M70.16163318598097,219.838366814019 L30,260M30,260 L70.16163318598097,219.838366814019 A56.79712633866769,56.79712633866769 0 0,1 86.13667218102556,251.36358889522683z" fill="blue" font-family="Times Roman" /><text x="53.95272727272727" y="250.56727272727272" font-size="20">29°</text><path d="M136.3650917526369,243.63613973036354 L160,240M160,240 L136.3650917526369,243.63613973036354 A23.91297555721579,23.91297555721579 0 0,1 163.63613973036354,216.36509175263689z" fill="blue" font-family="Times Roman" /><text x="142.0" y="239.0" font-size="20">x°</text><path d="M170.28920291865313,173.12018102875464 L180,110M180,110 L170.28920291865313,173.12018102875464 A63.8627969404555,63.8627969404555 0 0,1 134.84218321786443,155.15781678213557z" fill="blue" font-family="Times Roman" /><text x="143.99272727272728" y="160.76727272727274" font-size="20">35°</text><path d="M30,260 160,240 180,110z" fill="none" stroke="black" stroke-width="1" /></svg>