<?xml version="1.0" standalone="no"?><!DOCTYPE svg PUBLIC "-//W3C//DTD SVG 1.1//EN" "http://www.w3.org/Graphics/SVG/1.1/DTD/svg11.dtd"><svg width="500" height="500" viewBox="0 0 300 300" preserveAspectRatio="none" xmlns="http://www.w3.org/2000/svg" xmlns:xlink="http://www.w3.org/1999/xlink"><path d="M30,260 160,240 180,110z" fill="none" stroke="black" stroke-width="1" /><path d="M74.70084786667921,215.29915213332077 L30,260M30,260 L74.70084786667921,215.29915213332077 A63.21654530263418,63.21654530263418 0 0,1 92.4814442003717,250.38747012301974z" fill="blue" font-family="Times Roman" /><text x="54.96000000000001" y="249.56" font-size="20">a-9°</text><path d="M128.69035643213388,244.81686824121016 L160,240M160,240 L128.69035643213388,244.81686824121016 A31.67800498768821,31.67800498768821 0 0,1 164.81686824121016,208.69035643213388z" fill="blue" font-family="Times Roman" /><text x="133.12" y="238.72" font-size="20">5a°</text><path d="M173.11340922871454,154.76284001335532 L180,110M180,110 L173.11340922871454,154.76284001335532 A45.289479777453806,45.289479777453806 0 0,1 147.97550173295141,142.02449826704859z" fill="blue" font-family="Times Roman" /><text x="157.19272727272727" y="147.32727272727274" font-size="20">a°</text><path d="M30,260 160,240 180,110z" fill="none" stroke="black" stroke-width="1" /></svg>